# Blender v3.1.0 Alpha OBJ File: ''
# www.blender.org
mtllib lamp.mtl
o Cylinder
v 0.000000 -0.282059 0.001367
v 0.000000 -0.282059 4.325798
v -0.244270 -0.141029 0.001367
v -0.244270 -0.141030 4.234176
v -0.244270 0.141030 0.001367
v -0.244270 0.141029 4.050931
v 0.000000 0.282059 0.001367
v 0.000000 0.282059 3.959309
v 0.244270 0.141029 0.001367
v 0.244270 0.141029 4.050931
v 0.244270 -0.141029 0.001367
v 0.244270 -0.141030 4.234176
v -0.185096 0.306947 4.796043
v 0.000000 0.246570 4.884132
v -0.185096 0.427700 4.619867
v 0.000000 0.488076 4.531779
v 0.185096 0.427700 4.619867
v 0.185096 0.306947 4.796043
v -0.130997 0.937139 5.209173
v -0.000000 0.911361 5.302167
v -0.130997 0.988693 5.023189
v -0.000000 1.014471 4.930196
v 0.130996 0.988693 5.023189
v 0.130996 0.937139 5.209173
v -0.168119 1.426546 5.430219
v -0.000001 1.426211 5.552942
v -0.168119 1.427215 5.184772
v -0.000001 1.427551 5.062049
v 0.168118 1.427215 5.184772
v 0.168118 1.426546 5.430219
v -0.217051 1.982162 5.432571
v -0.000001 1.981827 5.555295
v -0.217051 1.982832 5.354728
v -0.000001 1.983167 5.358800
v 0.217049 1.982832 5.354728
v 0.217049 1.982162 5.432571
v -0.217051 2.479063 5.436212
v -0.000001 2.478729 5.558935
v -0.217051 2.479733 5.358368
v -0.000001 2.480069 5.362439
v 0.217049 2.479733 5.358368
v 0.217049 2.479063 5.436212
v -0.000001 2.231618 5.233664
v 0.217049 2.231283 5.356547
v -0.217051 2.230613 5.434391
v -0.217051 2.231283 5.356547
v 0.217049 2.230613 5.434391
v -0.000001 2.230278 5.557116
vt 0.792503 0.849397
vt 0.792503 0.000000
vt 0.847905 0.017996
vt 0.847905 0.849397
vt 0.624612 0.915877
vt 0.380858 0.516401
vt 0.429049 0.494195
vt 0.662251 0.876378
vt 0.764802 0.000000
vt 0.752048 0.790597
vt 0.717194 0.776803
vt 0.729660 0.004093
vt 0.662251 0.792838
vt 0.675005 0.002241
vt 0.729643 0.892909
vt 0.691167 0.909683
vt 0.324488 0.039838
vt 0.102846 0.464186
vt 0.056998 0.443550
vt 0.288669 0.000000
vt 0.764802 0.849397
vt 0.764802 0.017996
vt 0.847905 0.422712
vt 0.895717 0.395140
vt 0.943529 0.422946
vt 0.943529 0.478324
vt 0.895717 0.505896
vt 0.847905 0.478090
vt 0.074881 0.570875
vt 0.099858 0.569469
vt 0.141479 0.695699
vt 0.124753 0.707906
vt 0.400464 0.394704
vt 0.426723 0.394420
vt 0.324488 0.503002
vt 0.362879 0.376278
vt 0.759211 0.907984
vt 0.000000 0.454598
vt 0.036573 0.587768
vt 0.098117 0.725468
vt 0.179983 0.796946
vt 0.149773 0.824464
vt 0.898783 0.013281
vt 0.933781 0.000000
vt 0.918794 0.105641
vt 0.894402 0.112057
vt 0.427519 0.243728
vt 0.453621 0.262035
vt 0.764802 0.981787
vt 0.738648 1.000000
vt 0.471211 0.272367
vt 0.193502 0.771321
vt 0.261585 0.863325
vt 0.257239 0.871388
vt 0.867453 0.106291
vt 0.893365 0.191587
vt 0.858790 0.190570
vt 0.892318 0.643301
vt 0.858178 0.629352
vt 0.847905 0.560529
vt 0.889641 0.584660
vt 0.924680 0.189735
vt 0.481782 0.147961
vt 0.511106 0.176360
vt 0.848309 0.346443
vt 0.892475 0.347340
vt 0.891194 0.394622
vt 0.848714 0.395140
vt 0.932972 0.296668
vt 0.890385 0.297227
vt 0.555791 0.069930
vt 0.591580 0.103238
vt 0.220203 0.903186
vt 0.847905 0.297745
vt 0.879059 0.505896
vt 0.892318 0.513510
vt 0.871839 0.723116
vt 0.847905 0.682201
vt 0.871840 0.643301
vt 0.887011 0.643971
vt 0.886209 0.683869
vt 0.887011 0.723786
vt 0.629202 0.075525
vt 0.624629 0.068273
vt 0.657679 0.033308
vt 0.662251 0.040560
vt 0.288691 0.906670
vt 0.293036 0.898607
vt 0.324488 0.933889
vt 0.320143 0.941951
vt 0.933376 0.345365
vt 0.933781 0.394063
vt 0.588840 0.034965
vt 0.621890 0.000000
vt 0.251655 0.938468
vt 0.283107 0.973749
vt 0.596152 0.110490
vn -0.5000 -0.8660 -0.0000
vn -1.0000 0.0000 0.0000
vn -0.5000 0.8660 0.0000
vn 0.5000 0.8660 0.0000
vn 0.5086 0.7998 -0.3189
vn 1.0000 0.0000 0.0000
vn 0.5000 -0.8660 -0.0000
vn -0.0000 0.0000 -1.0000
vn 0.9971 0.0683 0.0325
vn -0.9961 0.0589 0.0660
vn 0.9961 0.0589 0.0660
vn -0.5322 -0.6240 0.5722
vn -0.5086 0.7998 -0.3189
vn 0.5322 -0.6240 0.5722
vn 0.5648 -0.3679 0.7387
vn -0.5267 0.5213 -0.6714
vn -0.5336 -0.4409 0.7217
vn 0.5336 -0.4409 0.7217
vn 0.5267 0.5213 -0.6714
vn -0.9971 0.0683 0.0325
vn 0.9961 -0.0877 -0.0004
vn 0.5813 0.2423 -0.7768
vn -0.9971 -0.0760 -0.0092
vn 0.9971 -0.0760 -0.0092
vn -0.5813 0.2423 -0.7768
vn -0.5648 -0.3679 0.7387
vn 0.2562 0.2457 -0.9349
vn -0.2750 0.3620 -0.8907
vn -0.5372 -0.0272 0.8430
vn 0.5372 -0.0272 0.8430
vn 0.2750 0.3620 -0.8907
vn -0.9961 -0.0877 -0.0004
vn -0.0000 1.0000 0.0073
vn -0.2562 0.2457 -0.9349
vn -0.4922 -0.0064 0.8705
vn 0.4922 -0.0064 0.8705
vn -0.2564 -0.2328 -0.9381
vn 0.2564 -0.2328 -0.9381
usemtl Material
s off
f 1/1/1 2/2/1 4/3/1 3/4/1
f 3/5/2 4/6/2 6/7/2 5/8/2
f 5/9/3 6/10/3 8/11/3 7/12/3
f 7/12/4 8/11/4 10/13/4 9/14/4
f 10/13/5 8/11/5 16/15/5 17/16/5
f 9/17/6 10/18/6 12/19/6 11/20/6
f 11/21/7 12/22/7 2/2/7 1/1/7
f 1/23/8 3/24/8 5/25/8 7/26/8 9/27/8 11/28/8
f 18/29/9 17/30/9 23/31/9 24/32/9
f 6/7/10 4/6/10 13/33/10 15/34/10
f 12/19/11 10/18/11 17/30/11 18/29/11
f 4/6/12 2/35/12 14/36/12 13/33/12
f 8/11/13 6/10/13 15/37/13 16/15/13
f 2/38/14 12/19/14 18/29/14 14/39/14
f 20/40/15 24/32/15 30/41/15 26/42/15
f 16/43/16 15/44/16 21/45/16 22/46/16
f 13/33/17 14/36/17 20/47/17 19/48/17
f 14/39/18 18/29/18 24/32/18 20/40/18
f 17/16/19 16/15/19 22/49/19 23/50/19
f 15/34/20 13/33/20 19/48/20 21/51/20
f 30/41/21 29/52/21 35/53/21 36/54/21
f 23/55/22 22/46/22 28/56/22 29/57/22
f 21/58/23 19/59/23 25/60/23 27/61/23
f 24/32/24 23/31/24 29/52/24 30/41/24
f 22/46/25 21/45/25 27/62/25 28/56/25
f 19/48/26 20/47/26 26/63/26 25/64/26
f 44/65/27 43/66/27 40/67/27 41/68/27
f 28/56/28 27/62/28 33/69/28 34/70/28
f 25/64/29 26/63/29 32/71/29 31/72/29
f 26/42/30 30/41/30 36/54/30 32/73/30
f 29/57/31 28/56/31 34/70/31 35/74/31
f 27/61/32 25/60/32 31/75/32 33/76/32
f 37/77/33 38/78/33 42/79/33 41/80/33 40/81/33 39/82/33
f 46/83/2 45/84/2 37/85/2 39/86/2
f 47/87/6 44/88/6 41/89/6 42/90/6
f 43/66/34 46/91/34 39/92/34 40/67/34
f 45/84/35 48/93/35 38/94/35 37/85/35
f 48/95/36 47/87/36 42/90/36 38/96/36
f 32/73/36 36/54/36 47/87/36 48/95/36
f 31/72/35 32/71/35 48/93/35 45/84/35
f 34/70/37 33/69/37 46/91/37 43/66/37
f 36/54/6 35/53/6 44/88/6 47/87/6
f 33/97/2 31/72/2 45/84/2 46/83/2
f 35/74/38 34/70/38 43/66/38 44/65/38
