# Blender v3.1.0 Alpha OBJ File: ''
# www.blender.org
mtllib tree.mtl
o Cylinder
v 0.144525 -0.795226 -0.614570
v 0.000000 -0.802239 2.560054
v -0.762975 -0.247905 2.560053
v -0.957847 -1.105235 -0.614570
v -0.471544 0.649025 2.560053
v -0.542186 0.575472 -0.614570
v 0.471544 0.649025 2.560053
v 0.720051 1.385510 -0.614571
v 0.762975 -0.247905 2.560053
v 0.361235 0.497199 5.138727
v 0.584491 -0.189912 5.138727
v 1.348177 -0.950912 -0.614570
v -0.584491 -0.189912 5.138727
v 0.000000 -0.614569 5.138727
v -0.361235 0.497199 5.138727
v 0.000000 0.000001 4.522784
v -2.144168 1.594670 5.878129
v 0.678533 2.856907 5.815393
v -2.774947 -2.016093 5.779191
v 3.430047 0.000001 5.779191
v 0.903579 -3.062400 5.735747
v -2.814363 -0.038337 9.273067
v -1.084254 3.063397 9.151334
v 2.155128 2.311820 9.768512
v 3.069221 -0.926429 9.546281
v -1.670817 -2.463879 10.129438
v 0.000000 0.000002 11.329143
vt 0.783658 0.717737
vt 0.805263 0.531476
vt 0.841477 0.519852
vt 0.854195 0.722273
vt 0.380991 1.000000
vt 0.429713 0.881444
vt 0.487816 0.877837
vt 0.487816 0.999457
vt 0.854195 0.722121
vt 0.862140 0.526261
vt 0.918419 0.527603
vt 0.942304 0.722121
vt 0.317194 0.553252
vt 0.259209 0.553120
vt 0.266145 0.393690
vt 0.310566 0.393792
vt 0.222198 0.750082
vt 0.370071 0.750082
vt 0.714743 0.722273
vt 0.750872 0.521812
vt 0.556986 0.852975
vt 0.487816 0.867513
vt 0.520447 0.765794
vt 0.601553 0.721142
vt 0.630441 0.867513
vt 0.431512 0.776863
vt 0.415358 0.744133
vt 0.449885 0.721142
vt 0.487378 0.739662
vt 0.476023 0.774099
vt 0.771005 0.369215
vt 0.812672 0.376617
vt 0.840414 0.367712
vt 0.868413 0.367713
vt 0.911526 0.368741
vt 0.549555 0.163674
vt 0.380991 0.170940
vt 0.465994 0.000000
vt 0.492865 0.367713
vt 0.709065 0.027956
vt 0.709065 0.273050
vt 0.714743 0.497173
vt 0.689967 0.721142
vt 0.592251 0.601996
vt 0.709065 0.232285
vt 0.730252 0.045096
vt 0.925506 0.151278
vt 0.000000 0.449038
vt 0.222198 0.393691
vt 0.222198 0.643479
vt 0.380991 0.203287
vt 0.296490 0.393691
vt 0.101696 0.314819
vt 0.380991 0.000000
vt 0.132614 0.007158
vt 0.941607 0.000000
vt 0.941607 0.335278
vt 0.020337 0.686446
vt 0.468358 0.721142
vt 0.566245 0.386894
vt 0.385300 0.543080
vt 0.380991 0.367713
vt 0.173896 0.764869
vt 0.000000 0.125105
vn -0.1287 -0.9828 0.1326
vn -0.9644 0.2645 0.0015
vn -0.3434 0.9350 0.0880
vn 0.9494 0.3085 0.0588
vn 0.9541 0.2713 0.1267
vn 0.1970 -0.9719 0.1292
vn -0.0000 -0.0000 -1.0000
vn 0.0000 0.0000 1.0000
vn -0.9494 0.3085 0.0588
vn 0.5868 -0.8076 0.0588
vn -0.5868 -0.8076 0.0588
vn 0.0000 0.9983 0.0588
vn -0.2182 0.4448 -0.8686
vn -0.4734 0.1067 -0.8744
vn 0.3253 0.3246 -0.8882
vn 0.3320 -0.2611 -0.9064
vn -0.1236 -0.3967 -0.9096
vn -0.9786 0.1740 -0.1095
vn -0.3985 0.8781 -0.2649
vn 0.7087 0.6847 -0.1703
vn 0.7693 -0.6335 -0.0821
vn -0.2738 -0.9613 -0.0295
vn -0.8705 0.4880 0.0629
vn 0.2160 0.9749 0.0538
vn 0.9535 0.2585 0.1549
vn 0.3277 -0.8913 0.3134
vn -0.9120 -0.3614 0.1943
vn -0.5576 0.3407 0.7569
vn -0.0228 0.5739 0.8186
vn 0.5202 0.0885 0.8495
vn 0.2792 -0.5668 0.7751
vn -0.5900 0.0069 0.8074
usemtl Material.001
s 1
f 1/1/1 2/2/1 3/3/1 4/4/1
f 4/5/2 3/6/2 5/7/2 6/8/2
f 6/9/3 5/10/3 7/11/3 8/12/3
f 9/13/4 7/14/4 10/15/4 11/16/4
f 8/17/5 7/14/5 9/13/5 12/18/5
f 12/19/6 9/20/6 2/2/6 1/1/6
f 1/21/7 4/22/7 6/23/7 8/24/7 12/25/7
f 13/26/8 14/27/8 11/28/8 10/29/8 15/30/8
f 5/7/9 3/6/9 13/26/9 15/30/9
f 2/2/10 9/20/10 11/31/10 14/32/10
f 3/3/11 2/2/11 14/32/11 13/33/11
f 7/11/12 5/10/12 15/34/12 10/35/12
f 16/36/13 17/37/13 18/38/13
f 17/37/14 16/36/14 19/39/14
f 16/36/15 18/38/15 20/40/15
f 16/36/16 20/40/16 21/41/16
f 16/36/17 21/41/17 19/39/17
f 17/42/18 19/43/18 22/44/18
f 18/45/19 17/46/19 23/47/19
f 20/48/20 18/49/20 24/50/20
f 21/51/21 20/52/21 25/53/21
f 19/54/22 21/51/22 26/55/22
f 17/46/23 22/56/23 23/47/23
f 18/45/24 23/47/24 24/57/24
f 20/48/25 24/50/25 25/58/25
f 21/51/26 25/53/26 26/55/26
f 19/43/27 26/59/27 22/44/27
f 23/60/28 22/44/28 27/61/28
f 24/62/29 23/60/29 27/61/29
f 25/58/30 24/50/30 27/63/30
f 26/55/31 25/53/31 27/64/31
f 22/44/32 26/59/32 27/61/32
